<?xml version="1.0" encoding="iso-8859-1"?>
<!-- Generator: Adobe Illustrator 18.1.0, SVG Export Plug-In . SVG Version: 6.00 Build 0)  -->
<!DOCTYPE svg PUBLIC "-//W3C//DTD SVG 1.1//EN" "http://www.w3.org/Graphics/SVG/1.1/DTD/svg11.dtd" [
	<!ENTITY ns_flows "http://ns.adobe.com/Flows/1.0/">
	<!ENTITY ns_extend "http://ns.adobe.com/Extensibility/1.0/">
	<!ENTITY ns_ai "http://ns.adobe.com/AdobeIllustrator/10.0/">
	<!ENTITY ns_graphs "http://ns.adobe.com/Graphs/1.0/">
]>
<svg version="1.1" id="Layer_1" xmlns:x="&ns_extend;" xmlns:i="&ns_ai;" xmlns:graph="&ns_graphs;"
	 xmlns="http://www.w3.org/2000/svg" xmlns:xlink="http://www.w3.org/1999/xlink" xmlns:a="http://ns.adobe.com/AdobeSVGViewerExtensions/3.0/"
	 x="0px" y="0px" viewBox="0 0 96 96" style="enable-background:new 0 0 96 96;" xml:space="preserve">
<g>
	<path style="fill:#FFFFFF;" d="M48.413,24.468l4.542-4.149c1.704-1.556,2.063-3.671,0.95-5.83l0,0l-2.752-3.044l-1.514,1.383
		c1.401,1.549,1.806,3.363-0.033,5.042l-3.84,3.507c-3.542,3.235-3.4,6.777-0.476,10.011l0.762,0.843l2.731-2.494l-0.713-0.788
		C46.842,27.59,46.628,26.098,48.413,24.468L48.413,24.468z"/>
	<g>
		<defs>
			<rect id="SVGID_79_" x="30.436" y="11.446" width="35.129" height="63.233"/>
		</defs>
		<clipPath id="SVGID_2_">
			<use xlink:href="#SVGID_79_"  style="overflow:visible;"/>
		</clipPath>
		<path style="clip-path:url(#SVGID_2_);fill:#FFFFFF;" d="M36.73,27.528l4.542-4.149c1.704-1.556,2.063-3.671,0.95-5.83l0,0
			l-2.752-3.044l-1.514,1.383c1.401,1.549,1.806,3.363-0.033,5.042l-3.84,3.507c-3.542,3.235-3.4,6.777-0.476,10.011l0.762,0.843
			l2.731-2.494l-0.713-0.788C35.159,30.65,34.945,29.158,36.73,27.528L36.73,27.528z"/>
		<path style="clip-path:url(#SVGID_2_);fill:#FFFFFF;" d="M59.434,27.528l4.542-4.149c1.704-1.556,2.063-3.671,0.95-5.83l0,0
			l-2.752-3.044l-1.514,1.383c1.401,1.549,1.806,3.363-0.033,5.042l-3.84,3.507c-3.542,3.235-3.4,6.777-0.476,10.011l0.762,0.843
			l2.731-2.494l-0.713-0.788C57.863,30.65,57.65,29.158,59.434,27.528L59.434,27.528z"/>
	</g>
	<path style="fill:#FFFFFF;" d="M61.563,65.902l2.485,3.562c-4.75,3.342-10.595,5.215-16.806,5.215s-12.057-1.873-16.806-5.215
		l2.484-3.562c3.982,2.791,9.097,4.37,14.322,4.37S57.581,68.693,61.563,65.902L61.563,65.902z"/>
	<path style="fill:#FFFFFF;" d="M57.16,46.382c1.79,0,3.215,1.432,3.215,3.232c0,1.799-1.425,3.195-3.215,3.195
		c-1.79,0-3.179-1.396-3.179-3.195C53.981,47.814,55.369,46.382,57.16,46.382L57.16,46.382z"/>
	<path style="fill:#FFFFFF;" d="M39.91,52.438c-1.571,0-2.557-1.249-2.557-2.754c0-1.506,0.986-2.754,2.557-2.754
		c1.571,0,2.557,1.248,2.557,2.754C42.467,51.19,41.481,52.438,39.91,52.438L39.91,52.438z M39.91,42.89
		c-3.946,0-6.942,3.048-6.942,6.794c0,3.745,2.996,6.794,6.942,6.794c3.946,0,6.942-3.048,6.942-6.794
		C46.851,45.939,43.856,42.89,39.91,42.89L39.91,42.89z"/>
</g>
<g>
	<circle style="fill:none;" cx="48" cy="48" r="47.51"/>
	<path style="fill:#FFFFFF;" d="M48,96C21.533,96,0,74.467,0,48S21.533,0,48,0s48,21.533,48,48S74.467,96,48,96z M48,0.98
		C22.072,0.98,0.98,22.072,0.98,48S22.072,95.02,48,95.02S95.02,73.928,95.02,48S73.928,0.98,48,0.98z"/>
</g>
</svg>
