<?xml version="1.0" encoding="iso-8859-1"?>
<!-- Generator: Adobe Illustrator 18.1.0, SVG Export Plug-In . SVG Version: 6.00 Build 0)  -->
<!DOCTYPE svg PUBLIC "-//W3C//DTD SVG 1.1//EN" "http://www.w3.org/Graphics/SVG/1.1/DTD/svg11.dtd" [
	<!ENTITY ns_flows "http://ns.adobe.com/Flows/1.0/">
	<!ENTITY ns_extend "http://ns.adobe.com/Extensibility/1.0/">
	<!ENTITY ns_ai "http://ns.adobe.com/AdobeIllustrator/10.0/">
	<!ENTITY ns_graphs "http://ns.adobe.com/Graphs/1.0/">
]>
<svg version="1.1" id="Layer_1" xmlns:x="&ns_extend;" xmlns:i="&ns_ai;" xmlns:graph="&ns_graphs;"
	 xmlns="http://www.w3.org/2000/svg" xmlns:xlink="http://www.w3.org/1999/xlink" xmlns:a="http://ns.adobe.com/AdobeSVGViewerExtensions/3.0/"
	 x="0px" y="0px" viewBox="0 0 96 96" style="enable-background:new 0 0 96 96;" xml:space="preserve">
<g>
	<path style="fill:#FFFFFF;" d="M52.744,32.793c4.084,2.837,8.931,4.38,13.544,4.359l0.028,4.135
		c-5.508,0.035-11.084-1.675-15.939-5.047c-4.856-3.373-8.419-8.012-10.337-13.204l3.856-1.437
		C45.509,25.944,48.66,29.956,52.744,32.793L52.744,32.793z"/>
	<path style="fill:#FFFFFF;" d="M33.945,26.85c0,4.608-3.749,8.029-8.331,8.029v4.712c6.908,0,12.497-5.201,12.497-12.741H33.945
		L33.945,26.85z"/>
	<path style="fill:#FFFFFF;" d="M60.246,65.227l2.361,3.386C58.094,71.79,52.54,73.57,46.639,73.57
		c-5.901,0-11.455-1.78-15.968-4.957l2.36-3.386c3.784,2.653,8.644,4.154,13.608,4.154C51.603,69.381,56.463,67.88,60.246,65.227
		L60.246,65.227z"/>
	<path style="fill:#FFFFFF;" d="M73.126,67.033c1.84,0,3.02-1.536,3.02-3.386c0-4.677-3.193-6.388-5.38-6.597v2.129
		c1.319,0.21,2.777,1.361,2.846,2.968c-0.174-0.105-0.416-0.175-0.729-0.175c-1.562,0-2.534,1.048-2.534,2.514
		C70.349,65.846,71.495,67.033,73.126,67.033L73.126,67.033z"/>
	<path style="fill:#FFFFFF;" d="M22.416,67.666c-1.84,0-3.02-1.536-3.02-3.386c0-4.677,3.194-6.388,5.38-6.597v2.129
		C23.458,60.022,22,61.174,21.93,62.78c0.173-0.105,0.416-0.175,0.729-0.175c1.562,0,2.534,1.048,2.534,2.514
		C25.193,66.48,24.048,67.666,22.416,67.666L22.416,67.666z"/>
	<path style="fill:#FFFFFF;" d="M56.976,46.672c1.701,0,3.055,1.361,3.055,3.072c0,1.71-1.354,3.037-3.055,3.037
		s-3.02-1.327-3.02-3.037C53.956,48.033,55.275,46.672,56.976,46.672L56.976,46.672z"/>
	<path style="fill:#FFFFFF;" d="M40.586,52.429c-1.493,0-2.43-1.187-2.43-2.618c0-1.431,0.937-2.618,2.43-2.618
		c1.493,0,2.43,1.187,2.43,2.618C43.016,51.242,42.079,52.429,40.586,52.429L40.586,52.429z M40.586,43.353
		c-3.749,0-6.595,2.897-6.595,6.458c0,3.56,2.846,6.458,6.595,6.458c3.749,0,6.595-2.898,6.595-6.458
		C47.181,46.251,44.335,43.353,40.586,43.353L40.586,43.353z"/>
</g>
<g>
	<circle style="fill:none;" cx="48" cy="48" r="47.51"/>
	<path style="fill:#FFFFFF;" d="M48,96C21.533,96,0,74.467,0,48S21.533,0,48,0s48,21.533,48,48S74.467,96,48,96z M48,0.98
		C22.072,0.98,0.98,22.072,0.98,48S22.072,95.02,48,95.02S95.02,73.928,95.02,48S73.928,0.98,48,0.98z"/>
</g>
</svg>
