<?xml version="1.0" encoding="iso-8859-1"?>
<!-- Generator: Adobe Illustrator 18.1.0, SVG Export Plug-In . SVG Version: 6.00 Build 0)  -->
<!DOCTYPE svg PUBLIC "-//W3C//DTD SVG 1.1//EN" "http://www.w3.org/Graphics/SVG/1.1/DTD/svg11.dtd" [
	<!ENTITY ns_flows "http://ns.adobe.com/Flows/1.0/">
	<!ENTITY ns_extend "http://ns.adobe.com/Extensibility/1.0/">
	<!ENTITY ns_ai "http://ns.adobe.com/AdobeIllustrator/10.0/">
	<!ENTITY ns_graphs "http://ns.adobe.com/Graphs/1.0/">
]>
<svg version="1.1" id="Layer_1" xmlns:x="&ns_extend;" xmlns:i="&ns_ai;" xmlns:graph="&ns_graphs;"
	 xmlns="http://www.w3.org/2000/svg" xmlns:xlink="http://www.w3.org/1999/xlink" xmlns:a="http://ns.adobe.com/AdobeSVGViewerExtensions/3.0/"
	 x="0px" y="0px" viewBox="0 0 14 19" style="enable-background:new 0 0 14 19;" xml:space="preserve">
<g>
	<path style="fill:#313A4C;" d="M0,19h14V7.125h-2.333V4.75C11.667,2.131,9.573,0,7,0C4.427,0,2.333,2.131,2.333,4.75v2.375H0V19z
		 M6.222,11.875c0-0.436,0.349-0.792,0.778-0.792s0.778,0.355,0.778,0.792c0,0.292-0.158,0.544-0.389,0.682v2.089
		c0,0.219-0.174,0.396-0.389,0.396s-0.389-0.177-0.389-0.396v-2.089C6.38,12.419,6.222,12.167,6.222,11.875z M3.111,4.75
		c0-2.182,1.744-3.958,3.889-3.958s3.889,1.776,3.889,3.958v2.375H3.111V4.75z"/>
</g>
</svg>
