<?xml version="1.0" encoding="iso-8859-1"?>
<!-- Generator: Adobe Illustrator 18.0.0, SVG Export Plug-In . SVG Version: 6.00 Build 0)  -->
<!DOCTYPE svg PUBLIC "-//W3C//DTD SVG 1.1//EN" "http://www.w3.org/Graphics/SVG/1.1/DTD/svg11.dtd" [
	<!ENTITY ns_flows "http://ns.adobe.com/Flows/1.0/">
	<!ENTITY ns_extend "http://ns.adobe.com/Extensibility/1.0/">
	<!ENTITY ns_ai "http://ns.adobe.com/AdobeIllustrator/10.0/">
	<!ENTITY ns_graphs "http://ns.adobe.com/Graphs/1.0/">
]>
<svg version="1.1" id="Layer_1" xmlns:x="&ns_extend;" xmlns:i="&ns_ai;" xmlns:graph="&ns_graphs;"
	 xmlns="http://www.w3.org/2000/svg" xmlns:xlink="http://www.w3.org/1999/xlink" xmlns:a="http://ns.adobe.com/AdobeSVGViewerExtensions/3.0/"
	 x="0px" y="0px" viewBox="0 0 15 20" style="enable-background:new 0 0 15 20;" xml:space="preserve">
<g>
	<path style="fill:#313A4C;" d="M0,7.5V20h15V7.5h-2.5V5c0-2.757-2.243-5-5-5c-2.757,0-5,2.243-5,5h0.833
		c0-2.297,1.869-4.167,4.167-4.167S11.667,2.703,11.667,5v2.5H0z M6.667,12.5c0-0.459,0.374-0.833,0.833-0.833
		s0.833,0.374,0.833,0.833c0,0.307-0.169,0.573-0.417,0.717v2.199c0,0.23-0.187,0.417-0.417,0.417s-0.417-0.187-0.417-0.417v-2.199
		C6.835,13.073,6.667,12.807,6.667,12.5z"/>
</g>
</svg>
