<?xml version="1.0" encoding="iso-8859-1"?>
<!-- Generator: Adobe Illustrator 18.1.0, SVG Export Plug-In . SVG Version: 6.00 Build 0)  -->
<!DOCTYPE svg PUBLIC "-//W3C//DTD SVG 1.1//EN" "http://www.w3.org/Graphics/SVG/1.1/DTD/svg11.dtd" [
	<!ENTITY ns_flows "http://ns.adobe.com/Flows/1.0/">
	<!ENTITY ns_extend "http://ns.adobe.com/Extensibility/1.0/">
	<!ENTITY ns_ai "http://ns.adobe.com/AdobeIllustrator/10.0/">
	<!ENTITY ns_graphs "http://ns.adobe.com/Graphs/1.0/">
]>
<svg version="1.1" id="Layer_1" xmlns:x="&ns_extend;" xmlns:i="&ns_ai;" xmlns:graph="&ns_graphs;"
	 xmlns="http://www.w3.org/2000/svg" xmlns:xlink="http://www.w3.org/1999/xlink" xmlns:a="http://ns.adobe.com/AdobeSVGViewerExtensions/3.0/"
	 x="0px" y="0px" viewBox="0 0 18 18" style="enable-background:new 0 0 18 18;" xml:space="preserve">
<g>
	<path style="fill:#FFFFFF;" d="M6.75,13.5c1.599,0,3.067-0.561,4.225-1.494l5.744,5.773C16.865,17.926,17.057,18,17.25,18
		c0.191,0,0.383-0.073,0.529-0.218c0.294-0.292,0.295-0.767,0.003-1.061l-5.75-5.78C12.948,9.789,13.5,8.334,13.5,6.75
		C13.5,3.028,10.472,0,6.75,0C3.028,0,0,3.028,0,6.75C0,10.472,3.028,13.5,6.75,13.5z M6.75,1.5C9.645,1.5,12,3.855,12,6.75
		C12,9.645,9.645,12,6.75,12C3.855,12,1.5,9.645,1.5,6.75C1.5,3.855,3.855,1.5,6.75,1.5z"/>
</g>
</svg>
