<?xml version="1.0" encoding="iso-8859-1"?>
<!-- Generator: Adobe Illustrator 18.0.0, SVG Export Plug-In . SVG Version: 6.00 Build 0)  -->
<!DOCTYPE svg PUBLIC "-//W3C//DTD SVG 1.1//EN" "http://www.w3.org/Graphics/SVG/1.1/DTD/svg11.dtd" [
	<!ENTITY ns_flows "http://ns.adobe.com/Flows/1.0/">
	<!ENTITY ns_extend "http://ns.adobe.com/Extensibility/1.0/">
	<!ENTITY ns_ai "http://ns.adobe.com/AdobeIllustrator/10.0/">
	<!ENTITY ns_graphs "http://ns.adobe.com/Graphs/1.0/">
]>
<svg version="1.1" id="Layer_1" xmlns:x="&ns_extend;" xmlns:i="&ns_ai;" xmlns:graph="&ns_graphs;"
	 xmlns="http://www.w3.org/2000/svg" xmlns:xlink="http://www.w3.org/1999/xlink" xmlns:a="http://ns.adobe.com/AdobeSVGViewerExtensions/3.0/"
	 x="0px" y="0px" viewBox="0 0 145 52" style="enable-background:new 0 0 145 52;" xml:space="preserve">
<g style="adobe-opacity-share:1;">
	<rect x="1" y="1" style="fill:#E12100;adobe-opacity-share:0;" width="143" height="50"/>
	<path style="fill:#FFFFFF;adobe-opacity-share:0;" d="M143,2v48H2V2H143 M145,0h-2H2H0v2v48v2h2h141h2v-2V2V0L145,0z"/>
</g>
<g>
	<path style="fill:#FFFFFF;" d="M25.283,31.117c2.131,0,4.089-0.748,5.633-1.991l7.658,7.697c0.196,0.197,0.452,0.295,0.709,0.295
		c0.255,0,0.51-0.097,0.705-0.291c0.392-0.39,0.393-1.023,0.004-1.414l-7.667-7.706c1.222-1.537,1.958-3.477,1.958-5.589
		c0-4.963-4.037-9-9-9c-4.963,0-9,4.037-9,9C16.283,27.08,20.321,31.117,25.283,31.117z M25.283,15.117c3.86,0,7,3.14,7,7
		c0,3.86-3.14,7-7,7c-3.86,0-7-3.14-7-7C18.283,18.257,21.424,15.117,25.283,15.117z"/>
</g>
</svg>
