<?xml version="1.0" encoding="iso-8859-1"?>
<!-- Generator: Adobe Illustrator 18.1.0, SVG Export Plug-In . SVG Version: 6.00 Build 0)  -->
<!DOCTYPE svg PUBLIC "-//W3C//DTD SVG 1.1//EN" "http://www.w3.org/Graphics/SVG/1.1/DTD/svg11.dtd" [
	<!ENTITY ns_flows "http://ns.adobe.com/Flows/1.0/">
	<!ENTITY ns_extend "http://ns.adobe.com/Extensibility/1.0/">
	<!ENTITY ns_ai "http://ns.adobe.com/AdobeIllustrator/10.0/">
	<!ENTITY ns_graphs "http://ns.adobe.com/Graphs/1.0/">
]>
<svg version="1.1" id="Layer_1" xmlns:x="&ns_extend;" xmlns:i="&ns_ai;" xmlns:graph="&ns_graphs;"
	 xmlns="http://www.w3.org/2000/svg" xmlns:xlink="http://www.w3.org/1999/xlink" xmlns:a="http://ns.adobe.com/AdobeSVGViewerExtensions/3.0/"
	 x="0px" y="0px" viewBox="0 0 24 17" style="enable-background:new 0 0 24 17;" xml:space="preserve">
<path style="fill:#817271;" d="M23.5,0h-23C0.224,0,0,0.224,0,0.5v16C0,16.776,0.224,17,0.5,17h4C4.776,17,5,16.776,5,16.5v-0.75
	c0-0.689,0.561-1.25,1.25-1.25c0.689,0,1.25,0.561,1.25,1.25v0.75C7.5,16.776,7.724,17,8,17h8c0.276,0,0.5-0.224,0.5-0.5v-0.75
	c0-0.689,0.561-1.25,1.25-1.25c0.689,0,1.25,0.561,1.25,1.25v0.75c0,0.276,0.224,0.5,0.5,0.5h4c0.276,0,0.5-0.224,0.5-0.5v-16
	C24,0.224,23.776,0,23.5,0z M13,4h4v1h-4V4z M11,11H3v-0.5c0-1.241,0.623-2.638,2.249-3.22C4.788,6.826,4.5,6.197,4.5,5.5
	C4.5,4.122,5.622,3,7,3s2.5,1.122,2.5,2.5c0,0.697-0.288,1.326-0.749,1.78C10.377,7.862,11,9.259,11,10.5V11z M21,11h-8v-1h8V11z
	 M21,9h-8V8h8V9z M21,7h-8V6h8V7z"/>
</svg>
